<?xml version="1.0" encoding="UTF-8" standalone="no"?>
<!-- Created with Inkscape (http://www.inkscape.org/) -->

<svg
   width="173.7753mm"
   height="209.62051mm"
   viewBox="0 0 173.7753 209.62051"
   version="1.1"
   id="svg1"
   xml:space="preserve"
   inkscape:version="1.3 (0e150ed6c4, 2023-07-21)"
   sodipodi:docname="notepad.svg"
   xmlns:inkscape="http://www.inkscape.org/namespaces/inkscape"
   xmlns:sodipodi="http://sodipodi.sourceforge.net/DTD/sodipodi-0.dtd"
   xmlns="http://www.w3.org/2000/svg"
   xmlns:svg="http://www.w3.org/2000/svg"><sodipodi:namedview
     id="namedview1"
     pagecolor="#ffffff"
     bordercolor="#999999"
     borderopacity="1"
     inkscape:showpageshadow="0"
     inkscape:pageopacity="0"
     inkscape:pagecheckerboard="0"
     inkscape:deskcolor="#d1d1d1"
     inkscape:document-units="mm"
     inkscape:zoom="0.25575084"
     inkscape:cx="566.95806"
     inkscape:cy="304.98433"
     inkscape:window-width="1920"
     inkscape:window-height="1001"
     inkscape:window-x="-9"
     inkscape:window-y="-9"
     inkscape:window-maximized="1"
     inkscape:current-layer="layer1" /><defs
     id="defs1" /><g
     inkscape:label="Vrstva 1"
     inkscape:groupmode="layer"
     id="layer1"
     transform="translate(-17.569974,-43.398046)"><path
       style="fill:#000000"
       d="m 35.001142,252.70198 c -8.79014,-1.76029 -15.65798,-9.14934 -17.04278,-18.33618 -0.33285,-2.20814 -0.38704,-13.75292 -0.38838,-82.74188 -0.001,-54.715417 0.0872,-80.887655 0.27791,-82.417706 1.05301,-8.447631 6.33693,-14.924775 14.05337,-17.226918 1.7105,-0.510315 2.7224,-0.591771 8.58563,-0.691126 l 6.64659,-0.112629 0.15393,-1.299681 c 0.537,-4.534128 4.6257,-7.41345 8.80288,-6.199112 1.15913,0.336969 1.81831,0.754581 2.90267,1.838944 2.28848,2.288475 2.26937,2.13932 2.1776,16.993577 l -0.0782,12.65701 -0.61857,1.256064 c -2.30691,4.684387 -8.98155,5.204026 -11.86014,0.923344 -1.13028,-1.680815 -1.41191,-3.23096 -1.41191,-7.771445 v -3.846199 l -4.29948,0.08891 c -4.24445,0.08777 -4.3181,0.0994 -5.75469,0.908797 -0.84304,0.474983 -1.87495,1.365405 -2.453,2.116666 -1.94075,2.522303 -1.79125,-4.714614 -1.71592,83.060564 l 0.0679,79.10288 0.76754,1.66212 c 0.52326,1.13313 1.25414,2.11262 2.29646,3.07763 2.70989,2.50887 -4.44274,2.2717 68.510658,2.2717 h 64.46894 l 1.62207,-0.81055 c 2.64062,-1.31954 4.50189,-3.82965 5.07309,-6.84158 0.17787,-0.93788 0.26747,-27.644 0.26539,-79.10116 -0.003,-82.267252 0.0455,-78.874186 -1.17019,-81.224088 -0.74802,-1.445827 -2.67334,-3.124331 -4.26823,-3.721057 -1.36977,-0.512494 -2.01404,-0.545303 -10.70795,-0.545303 h -9.25049 v 4.18531 c 0,2.921557 -0.11804,4.582783 -0.39092,5.501661 -0.55036,1.853277 -1.88976,3.306056 -3.86548,4.19271 -1.42504,0.639519 -1.88188,0.720791 -3.4293,0.610073 -2.46886,-0.176646 -4.24015,-1.391335 -5.50351,-3.77413 l -0.70142,-1.322917 -0.0758,-12.768205 c -0.0495,-8.33679 0.0208,-13.126774 0.20241,-13.801349 1.10384,-4.09935 5.88671,-6.347038 9.63982,-4.530189 2.26844,1.098129 4.12419,3.973568 4.12419,6.390313 v 0.726816 l 12.10469,0.106176 c 11.74521,0.103023 12.15968,0.124143 13.95677,0.71119 7.13408,2.330467 11.85692,7.521432 14.09523,15.492332 0.41271,1.4697 0.45141,7.497146 0.52151,81.227077 0.0443,46.6553 -0.0252,81.12675 -0.16798,83.23031 -0.19608,2.88917 -0.40664,4.07707 -1.07764,6.0799 -2.33301,6.96355 -7.0775,11.81691 -13.768,14.08393 l -2.51354,0.85169 -68.52708,0.043 c -55.945358,0.0351 -68.848298,-0.0213 -70.276648,-0.30733 z m 6.11519,-23.58364 c 0,-0.23777 0.76857,-4.31566 1.70792,-9.06198 0.93936,-4.74632 2.55057,-12.97545 3.58048,-18.28696 2.48694,-12.82578 4.17988,-21.21226 4.67017,-23.13517 0.84969,-3.33243 1.50702,-4.20241 8.80871,-11.65835 14.74807,-15.05963 61.660398,-63.59156 66.691968,-68.994441 1.24181,-1.33345 2.17819,-2.043285 3.66474,-2.778125 1.9572,-0.967484 2.0573,-0.987036 5.05357,-0.987036 2.88904,0 3.15474,0.04639 4.84101,0.845179 2.13455,1.011146 3.01203,1.810498 14.50676,13.215153 7.65923,7.5992 8.74354,8.77926 9.74597,10.60654 1.87085,3.4103 2.03464,7.60246 0.43366,11.09945 -0.76838,1.67837 -2.14562,3.17124 -19.84932,21.51597 -1.47457,1.52797 -5.5252,5.75469 -9.00139,9.39271 -3.47619,3.63802 -7.63696,7.98782 -9.24615,9.66623 -1.6092,1.67841 -4.17596,4.3622 -5.70393,5.96398 -24.097778,25.26189 -31.685758,32.9639 -33.866668,34.37558 -0.94588,0.61226 -3.32713,1.77864 -5.29166,2.59195 -6.98849,2.89322 -40.29041,16.06163 -40.61865,16.06163 -0.07,0 -0.12719,-0.19454 -0.12719,-0.43231 z m 24.07709,-19.88087 c 5.89359,-2.61599 11.64571,-5.14253 12.78249,-5.61454 l 2.06686,-0.85819 1.8385,-2.81277 1.8385,-2.81278 -9.19502,-9.02716 -9.19503,-9.02716 -2.51555,2.37735 c -1.74478,1.64894 -2.57417,2.63136 -2.70689,3.20633 -0.10525,0.45594 -1.44592,7.02023 -2.97927,14.58731 -1.53335,7.56708 -2.86499,14.04484 -2.95918,14.39502 -0.0962,0.35769 -0.0661,0.57232 0.0688,0.48981 0.13206,-0.0808 5.06214,-2.28723 10.95574,-4.90322 z m 33.46858,-28.10557 c 1.755078,-1.81901 6.408988,-6.64104 10.342018,-10.71562 16.44992,-17.04199 18.76335,-19.49303 18.76335,-19.87948 0,-0.22311 -3.86953,-4.2735 -8.59896,-9.00086 l -8.59895,-8.59521 -2.60958,2.73048 c -1.43526,1.50177 -6.84788,7.07626 -12.028028,12.38777 -5.18016,5.31151 -11.03448,11.32417 -13.0096,13.36146 -1.97512,2.0373 -4.86711,5.02038 -6.42665,6.62908 -1.55953,1.6087 -2.83822,3.03745 -2.84152,3.175 -0.003,0.13755 3.95553,4.14401 8.79739,8.90325 l 8.8034,8.65316 2.10804,-2.17087 c 1.15941,-1.19398 3.54401,-3.65915 5.29909,-5.47816 z m 41.484488,-42.96503 4.143,-4.33587 -4.68919,-4.60986 c -2.57905,-2.53543 -6.59418,-6.48003 -8.92251,-8.76577 l -4.23334,-4.1559 -4.04953,4.12803 c -2.22724,2.27042 -4.00594,4.25882 -3.95265,4.41867 0.0678,0.20336 17.36753,17.60985 17.54421,17.65246 0.009,0.002 1.88137,-1.94704 4.16001,-4.33176 z m 13.6404,-14.02978 c 0.89619,-0.93329 1.62944,-1.80568 1.62944,-1.93864 0,-0.23506 -17.58579,-17.59069 -17.97156,-17.73636 -0.10624,-0.0401 -0.93585,0.7123 -1.84356,1.67204 -1.42884,1.51074 -1.60518,1.80467 -1.31357,2.18961 0.49793,0.65729 17.53014,17.48152 17.71331,17.49701 0.0861,0.007 0.88975,-0.75037 1.78594,-1.68366 z M 77.723362,80.036998 c -1.19115,-0.345136 -3.36707,-2.40252 -4.09892,-3.875624 l -0.62582,-1.259678 V 61.804822 c 0,-14.695125 -0.0855,-13.995698 1.98508,-16.241986 1.93307,-2.097141 5.07365,-2.722499 7.74059,-1.541323 2.25871,1.000376 4.15708,3.771281 4.16237,6.075497 l 0.003,1.124479 h 12.01027 12.010268 l 0.28475,-1.616581 c 0.6631,-3.764441 3.23721,-6.095127 6.78325,-6.141783 2.91556,-0.03836 5.33927,1.540876 6.54373,4.263754 0.4882,1.103665 0.51258,1.82543 0.4819,14.265002 -0.0348,14.099817 -0.0206,13.944232 -1.44575,15.812769 -0.87452,1.146546 -3.06469,2.267177 -4.77624,2.443825 -2.84331,0.293455 -5.26881,-0.892978 -6.6525,-3.254065 -0.7541,-1.286775 -1.13549,-4.189348 -1.15316,-8.776139 l -0.009,-2.450092 -11.972388,0.06884 -11.9724,0.06884 -0.13597,4.7625 c -0.1212,4.245356 -0.19922,4.881516 -0.71848,5.85855 -1.52685,2.872926 -5.27101,4.429383 -8.44373,3.510085 z"
       id="path1" /></g></svg>
